# xmcd
#
# Track frame offsets:
#	150
#	16212
#	36132
#	52622
#	65540
#	82222
#	99792
#	116657
#	131385
#	151927
#	167990
#	184607
#	207847
#	220007
#	236610
#
# Disc length: 3355 seconds
#
# Revision: 1
# Processed by: cddbd v1.4PL0 Copyright (c) Steve Scherf et al.
# Submitted via: EasyCDDAExtractor 6.0.0.1
#
DISCID=bc0d190f
DTITLE=Pistol Pete And The Professionals - Loaded
DYEAR=1995
DGENRE=Blues
TTITLE0=Psychedelic Blues Man
TTITLE1=Coming Home
TTITLE2=Put A Hurt On You
TTITLE3=Ain't No Doubt
TTITLE4=She's Evil
TTITLE5=Stallion
TTITLE6=Jones'n For Ya
TTITLE7=Takin' A Chance
TTITLE8=Gonna Come A Day
TTITLE9=Cadillac Man
TTITLE10=Big Leg Woman
TTITLE11=Make Up Your Mind
TTITLE12=Loaded
TTITLE13=Wired
TTITLE14=Pass Meets Wes
EXTD=
EXTT0=
EXTT1=
EXTT2=
EXTT3=
EXTT4=
EXTT5=
EXTT6=
EXTT7=
EXTT8=
EXTT9=
EXTT10=
EXTT11=
EXTT12=
EXTT13=
EXTT14=
PLAYORDER=
